<?xml version="1.0" encoding="UTF-8"?>
<svg width="248px" height="40px" viewBox="0 0 248 40" version="1.1" xmlns="http://www.w3.org/2000/svg" xmlns:xlink="http://www.w3.org/1999/xlink">
   <!-- Generator: Sketch 53.2 (72643) - https://sketchapp.com -->
   <title>NEW Q Button</title>
   <desc>Created with Sketch.</desc>
   <g id="working-layouts" stroke="none" stroke-width="1" fill="none" fill-rule="evenodd">
      <g id="page-2-destination-selection" transform="translate(-23.000000, -185.000000)">
         <g id="LEFT-PANEL" transform="translate(-1.000000, 161.000000)">
            <g id="NEW-Q-Button" transform="translate(24.000000, 24.000000)">
               <g>
                  <rect id="Rectangle" fill="#232176" x="0" y="0" width="248" height="40" rx="3"></rect>
                  <path d="M24.887,27.216 C21.431,27.216 18.677,24.696 18.677,21.006 C18.677,17.316 21.431,14.796 24.887,14.796 C27.407,14.796 28.901,16.056 29.801,17.496 L28.001,18.414 C27.425,17.424 26.273,16.668 24.887,16.668 C22.601,16.668 20.837,18.486 20.837,21.006 C20.837,23.526 22.601,25.344 24.887,25.344 C26.273,25.344 27.425,24.606 28.001,23.598 L29.801,24.516 C28.883,25.956 27.407,27.216 24.887,27.216 Z M38.351,27 L35.687,22.518 L33.599,22.518 L33.599,27 L31.493,27 L31.493,14.994 L36.767,14.994 C39.143,14.994 40.691,16.542 40.691,18.756 C40.691,20.898 39.287,22.05 37.847,22.284 L40.781,27 L38.351,27 Z M38.531,18.756 C38.531,17.604 37.667,16.848 36.479,16.848 L33.599,16.848 L33.599,20.664 L36.479,20.664 C37.667,20.664 38.531,19.908 38.531,18.756 Z M42.797,27 L42.797,14.994 L51.023,14.994 L51.023,16.848 L44.903,16.848 L44.903,19.962 L50.897,19.962 L50.897,21.816 L44.903,21.816 L44.903,25.146 L51.023,25.146 L51.023,27 L42.797,27 Z M61.679,27 L60.797,24.696 L55.109,24.696 L54.227,27 L51.923,27 L56.639,14.994 L59.267,14.994 L63.983,27 L61.679,27 Z M57.953,16.776 L55.703,22.842 L60.203,22.842 L57.953,16.776 Z M66.989,27 L66.989,16.848 L63.353,16.848 L63.353,14.994 L72.731,14.994 L72.731,16.848 L69.095,16.848 L69.095,27 L66.989,27 Z M74.513,27 L74.513,14.994 L82.739,14.994 L82.739,16.848 L76.619,16.848 L76.619,19.962 L82.613,19.962 L82.613,21.816 L76.619,21.816 L76.619,25.146 L82.739,25.146 L82.739,27 L74.513,27 Z M101.261,21.006 C101.261,22.734 100.667,24.228 99.659,25.326 L100.649,26.442 L99.191,27.666 L98.147,26.496 C97.283,26.964 96.257,27.216 95.123,27.216 C91.523,27.216 88.985,24.588 88.985,21.006 C88.985,17.424 91.523,14.796 95.123,14.796 C98.723,14.796 101.261,17.424 101.261,21.006 Z M95.123,25.344 C95.753,25.344 96.329,25.218 96.833,24.984 L95.339,23.292 L96.797,22.086 L98.291,23.76 C98.813,23.022 99.101,22.068 99.101,21.006 C99.101,18.522 97.535,16.668 95.123,16.668 C92.693,16.668 91.145,18.522 91.145,21.006 C91.145,23.472 92.693,25.344 95.123,25.344 Z M103.295,22.266 L103.295,14.994 L105.419,14.994 L105.419,22.194 C105.419,24.102 106.481,25.344 108.497,25.344 C110.495,25.344 111.557,24.102 111.557,22.194 L111.557,14.994 L113.681,14.994 L113.681,22.248 C113.681,25.236 111.971,27.216 108.497,27.216 C105.005,27.216 103.295,25.218 103.295,22.266 Z M116.237,27 L116.237,14.994 L124.463,14.994 L124.463,16.848 L118.343,16.848 L118.343,19.962 L124.337,19.962 L124.337,21.816 L118.343,21.816 L118.343,25.146 L124.463,25.146 L124.463,27 L116.237,27 Z M125.849,25.308 L127.019,23.688 C127.847,24.57 129.143,25.344 130.817,25.344 C132.545,25.344 133.229,24.498 133.229,23.706 C133.229,22.626 131.951,22.302 130.493,21.924 C128.531,21.438 126.227,20.862 126.227,18.324 C126.227,16.344 127.973,14.814 130.601,14.814 C132.473,14.814 133.985,15.408 135.101,16.488 L133.895,18.054 C132.959,17.118 131.681,16.686 130.421,16.686 C129.179,16.686 128.387,17.28 128.387,18.18 C128.387,19.116 129.611,19.422 131.033,19.782 C133.013,20.286 135.371,20.898 135.371,23.508 C135.371,25.506 133.967,27.216 130.727,27.216 C128.513,27.216 126.911,26.442 125.849,25.308 Z M139.997,27 L139.997,16.848 L136.361,16.848 L136.361,14.994 L145.739,14.994 L145.739,16.848 L142.103,16.848 L142.103,27 L139.997,27 Z M147.521,27 L147.521,14.994 L149.627,14.994 L149.627,27 L147.521,27 Z M151.643,21.006 C151.643,17.424 154.181,14.796 157.781,14.796 C161.381,14.796 163.919,17.424 163.919,21.006 C163.919,24.588 161.381,27.216 157.781,27.216 C154.181,27.216 151.643,24.588 151.643,21.006 Z M161.759,21.006 C161.759,18.522 160.193,16.668 157.781,16.668 C155.351,16.668 153.803,18.522 153.803,21.006 C153.803,23.472 155.351,25.344 157.781,25.344 C160.193,25.344 161.759,23.472 161.759,21.006 Z M174.323,27 L168.059,18.252 L168.059,27 L165.953,27 L165.953,14.994 L168.113,14.994 L174.251,23.508 L174.251,14.994 L176.357,14.994 L176.357,27 L174.323,27 Z M187.283,27 L181.019,18.252 L181.019,27 L178.913,27 L178.913,14.994 L181.073,14.994 L187.211,23.508 L187.211,14.994 L189.317,14.994 L189.317,27 L187.283,27 Z M200.369,27 L199.487,24.696 L193.799,24.696 L192.917,27 L190.613,27 L195.329,14.994 L197.957,14.994 L202.673,27 L200.369,27 Z M196.643,16.776 L194.393,22.842 L198.893,22.842 L196.643,16.776 Z M203.987,27 L203.987,14.994 L206.093,14.994 L206.093,27 L203.987,27 Z M215.507,27 L212.843,22.518 L210.755,22.518 L210.755,27 L208.649,27 L208.649,14.994 L213.923,14.994 C216.299,14.994 217.847,16.542 217.847,18.756 C217.847,20.898 216.443,22.05 215.003,22.284 L217.937,27 L215.507,27 Z M215.687,18.756 C215.687,17.604 214.823,16.848 213.635,16.848 L210.755,16.848 L210.755,20.664 L213.635,20.664 C214.823,20.664 215.687,19.908 215.687,18.756 Z M219.953,27 L219.953,14.994 L228.179,14.994 L228.179,16.848 L222.059,16.848 L222.059,19.962 L228.053,19.962 L228.053,21.816 L222.059,21.816 L222.059,25.146 L228.179,25.146 L228.179,27 L219.953,27 Z" id="CREATEQUESTIONNAIRE" fill="#FFFFFF" fill-rule="nonzero"></path>
               </g>
            </g>
         </g>
      </g>
   </g>
</svg>
