<svg id="Layer_1" data-name="Layer 1" xmlns="http://www.w3.org/2000/svg" xmlns:xlink="http://www.w3.org/1999/xlink" viewBox="0 0 1454.28 985.44"><defs><style>.cls-1{fill:url(#linear-gradient);}</style><linearGradient id="linear-gradient" x1="-387.85" y1="890.1" x2="-387.85" y2="889.1" gradientTransform="matrix(1738, 0, 0, -988, 674807.73, 879420.01)" gradientUnits="userSpaceOnUse"><stop offset="0" stop-color="#32c5ff"/><stop offset="0.17" stop-color="#0a87cd" stop-opacity="0.6"/><stop offset="0.4" stop-color="#145ba8" stop-opacity="0.73"/><stop offset="0.61" stop-color="#1c3b8d" stop-opacity="0.84"/><stop offset="0.78" stop-color="#21287c" stop-opacity="0.93"/><stop offset="0.9" stop-color="#232176"/><stop offset="1" stop-color="#232176"/></linearGradient></defs><title>dataswoop-color-edited</title><path id="Shape" opacity="0.1" class="cls-1" d="M1170,988H986.48A35.58,35.58,0,0,1,964,980.32c-6.1-5-9.64-11.66-10-18.85a751.06,751.06,0,0,0-8.3-83.62,888.33,888.33,0,0,0-19.23-91.48,22.87,22.87,0,0,1-.32-11.12,25.22,25.22,0,0,1,4.66-9.9,31.46,31.46,0,0,1,11.47-9.19,35,35,0,0,1,7.49-2.6,37.56,37.56,0,0,1,8.32-.93h187.59a37.91,37.91,0,0,1,11,1.64,34.11,34.11,0,0,1,9.53,4.59,29.31,29.31,0,0,1,7.23,7,25.42,25.42,0,0,1,4.14,9c3.41,14.4,6.51,29.14,9.24,43.83s5.2,30.07,7.27,45.29,3.85,31.11,5.24,46.8c1.4,15.86,2.46,32.13,3.15,48.35a23.76,23.76,0,0,1-1.75,10,27.25,27.25,0,0,1-5.6,8.54,32.93,32.93,0,0,1-11.06,7.47A36.73,36.73,0,0,1,1170,988Zm252-288.77H1233.88a35.51,35.51,0,0,1-18.6-5.08,28.57,28.57,0,0,1-11.71-13.43c-11.27-27.42-24.07-54.69-38-81.05-14.43-27.2-30.45-54.1-47.64-79.95a11.22,11.22,0,0,1-1.92-5.85,10.94,10.94,0,0,1,1.34-5.6,12.85,12.85,0,0,1,5-5,15.71,15.71,0,0,1,7.87-2H1344a37.2,37.2,0,0,1,16.1,3.6,30.55,30.55,0,0,1,11.92,10c7.84,11.36,15.46,23,22.66,34.65,7.3,11.81,14.36,23.9,21,35.94,6.71,12.22,13.18,24.76,19.23,37.3,6.13,12.7,12,25.72,17.41,38.7a24.65,24.65,0,0,1,.44,18.38,27,27,0,0,1-2.79,5.45,30.59,30.59,0,0,1-11.42,10.09,34.43,34.43,0,0,1-7.75,2.89,37.19,37.19,0,0,1-8.79,1Zm-619.62,0H611.14a37.25,37.25,0,0,1-10.23-1.41,34.3,34.3,0,0,1-8.92-4,30.48,30.48,0,0,1-7-6.16,26.78,26.78,0,0,1-4.6-8c-9.9-27-21-53.73-32.87-79.52-12.74-27.59-26.82-54.84-41.84-81a11,11,0,0,1,0-11.21,13.23,13.23,0,0,1,5.08-4.88,15.87,15.87,0,0,1,7.69-1.93H737a37.19,37.19,0,0,1,17.1,4.06,29.63,29.63,0,0,1,12.07,11.18c13.21,22.72,25.55,46.56,36.67,70.86,11.27,24.59,21.58,50.29,30.66,76.38a22.94,22.94,0,0,1,1.14,11.52,24.7,24.7,0,0,1-4.29,10.4,31.24,31.24,0,0,1-11.6,9.83,36.59,36.59,0,0,1-16.37,3.8Zm477.41-223.41h-176a35.54,35.54,0,0,1-15.11-3.34,31.22,31.22,0,0,1-11.43-9.11c-17.72-23-36.69-45.56-56.38-67-20.29-22.11-42-43.7-64.36-64.19a11.68,11.68,0,0,1-3.57-5.86,10.41,10.41,0,0,1,.45-6.12,11.75,11.75,0,0,1,4.62-5.56,15,15,0,0,1,8.16-2.28h199.55a37.28,37.28,0,0,1,11.94,1.93,32.84,32.84,0,0,1,10.35,5.61c21.35,17.13,42,35,61.21,53.11,19.84,18.65,38.82,38.09,56.42,57.78a27.46,27.46,0,0,1,4.39,6.54,24,24,0,0,1,2.1,6.88,24.52,24.52,0,0,1-2,13.54,28,28,0,0,1-4.61,7.11,30.94,30.94,0,0,1-6.81,5.74A35.72,35.72,0,0,1,1279.75,475.82Zm-298.18,0h-182c-11.12,0-21.28-4.9-27.2-13.1-16.32-22.78-33.9-45.18-52.26-66.58C701.18,374.08,681,352.51,660,332a11.42,11.42,0,0,1-3.32-5.82,10.18,10.18,0,0,1,.55-5.95,11.8,11.8,0,0,1,4.68-5.48,15,15,0,0,1,8.09-2.24H876.88a35.62,35.62,0,0,1,23.43,8.35c19.45,16.9,38.32,34.72,56.09,52.95,18,18.47,35.34,37.85,51.55,57.61a28.18,28.18,0,0,1,4.08,6.62,24.58,24.58,0,0,1,1.85,6.89,24.87,24.87,0,0,1-2.29,13.43,29.3,29.3,0,0,1-11.37,12.43,35.76,35.76,0,0,1-18.64,5ZM683,475.66H497.93A36.36,36.36,0,0,1,481.8,472a30,30,0,0,1-11.72-10.22c-15-22.45-31.18-44.64-48.09-66-17.44-22-36.1-43.61-55.46-64.24a11.14,11.14,0,0,1-3-5.74,10.28,10.28,0,0,1,.69-5.82,12.05,12.05,0,0,1,4.7-5.41,14.92,14.92,0,0,1,8-2.2h210a38.15,38.15,0,0,1,13.37,2.38,32.43,32.43,0,0,1,11,6.8c17.82,16.91,35.08,34.73,51.32,53C679.09,393,695,412.42,709.77,432.25a27.61,27.61,0,0,1,3.68,6.69,24.88,24.88,0,0,1,1.53,6.87A25.19,25.19,0,0,1,712.3,459,29.27,29.27,0,0,1,701,470.89a33.11,33.11,0,0,1-8.3,3.5,37.11,37.11,0,0,1-9.72,1.27ZM561.34,296.14H335.58a9.66,9.66,0,0,1-6.39-2.46c-19.6-18.66-39.71-36.41-59.78-52.78-10.63-8.66-21.51-17.16-32.36-25.26-11.21-8.37-22.71-16.55-34.18-24.33-1.53-1.09-3.08-2.05-4.59-3L196,186.89h236.9c23.94,14.51,47.18,29.75,69.06,45.29,22.84,16.22,44.92,33.28,65.61,50.69a6.78,6.78,0,0,1,2.17,7.63,8.29,8.29,0,0,1-3,3.92A9.57,9.57,0,0,1,561.34,296.14Zm855.05-.17H1213.24a9.05,9.05,0,0,1-5.57-1.8c-25.07-19-52.19-37.78-80.61-55.79-27.78-17.6-57.55-34.92-88.47-51.49h213.15c30,14.27,59.3,29.45,87.24,45.1,28.58,16,56.45,33,82.82,50.39a7.62,7.62,0,0,1,3,3.67,6.51,6.51,0,0,1,.11,4.16,7.76,7.76,0,0,1-3,4.05,9.56,9.56,0,0,1-5.62,1.71Zm-284.09,0H917.51a9.21,9.21,0,0,1-5.9-2c-23.55-19.27-48.45-38-74-55.59-26.07-18-53.53-35.31-81.63-51.53v-.17H980.1c27.86,14.39,55.11,29.61,81,45.25,26.58,16.06,52.47,33,76.94,50.41a7.5,7.5,0,0,1,2.8,3.77,6.89,6.89,0,0,1,0,4.19,7.94,7.94,0,0,1-3,4A9.45,9.45,0,0,1,1132.3,296Zm-284.91,0H625.07a9,9,0,0,1-6.23-2.13c-22-19.5-44.86-38.13-67.86-55.38-12.06-9-24.42-17.9-36.73-26.32-12.74-8.71-25.78-17.2-38.76-25.25H707c26,14.48,51.23,29.71,75.06,45.26,24.81,16.2,48.78,33.21,71.24,50.56a7.19,7.19,0,0,1,2.59,3.68,6.64,6.64,0,0,1-.13,4,8,8,0,0,1-3,3.91,9.22,9.22,0,0,1-5.38,1.63Zm393.86-114.16H1029.09c-1.34-.73-2.64-1.46-4-2.19l-.08-.05,0,0-.23-.12-.12-.07h-.05l0,0h0l0,0h0c-3.5-2-6.81-3.8-10.5-5.65-68.11-34.73-167-72.29-271.41-103-25.9-7.63-52-14.78-77.41-21.24C639.14,42.73,613.51,36.78,589,31.68c-51.93-10.83-98.56-17.9-138.58-21,24,0,51.43,1.26,81.54,3.76,29,2.41,60.82,6,94.51,10.6,32.65,4.48,67.35,10,103.14,16.38,35,6.25,71.13,13.36,107.42,21.12,36,7.7,72.08,16,107.33,24.82s70,18,102.91,27.46c33.38,9.56,65,19.34,94.13,29.06,29.83,10,57.09,19.93,81,29.61,2,.9,4.13,1.82,6,2.63l0,0,0,0h0l.08,0,.06,0,.3.13.23.1.16.07h.05l0,0h.07c3.84,1.66,7.8,3.38,11.73,5.24h0Zm-271.14,0H747.45l-1.07-.69h0a29.56,29.56,0,0,0-2.66-1.58c-18.65-10.46-38.09-20.71-57.78-30.45-19.24-9.52-39.27-18.84-59.54-27.69-19.79-8.64-40.33-17.06-61.06-25C545.09,88.58,524.11,81,503,73.86c-20.62-7-42-13.72-63.43-20.08-21-6.21-42.6-12.19-64.26-17.77-41.82-10.8-85.6-20.59-130.13-29.13,95.95,1.81,181,3.34,204.83,3.76h.45C495,19.45,539.13,29.39,581.59,40.17c45.2,11.48,89.62,24.2,132,37.81,22.14,7.1,44.19,14.59,65.55,22.27,22,7.91,43.8,16.2,64.81,24.65,21.62,8.7,43.07,17.84,63.75,27.15,21.18,9.55,42.16,19.55,62.35,29.75h0ZM0,2.56,24.12,3l1.05,0,5.6.1h.09l1.2,0,4.73.09h1.36l1.07,0h.41l2.55,0,1.84,0,1.74,0C82.44,4,137.85,5,189.1,5.89,232.8,14.56,276,24.44,317.45,35.24c44.36,11.56,87.89,24.48,129.38,38.4,21.76,7.3,43.37,15,64.23,22.92,21.44,8.13,42.79,16.74,63.47,25.58,21.19,9.08,42.17,18.62,62.36,28.37,20.77,10,41.26,20.57,60.92,31.3H467.13c-18.18-11-37.21-21.82-56.57-32.07-18.91-10-38.7-19.8-58.82-29.08-19.63-9.07-40.09-17.89-60.81-26.23-20.28-8.16-41.32-16.06-62.53-23.49-20.75-7.26-42.28-14.28-64-20.87-21.19-6.42-43.12-12.6-65.17-18.37-21.52-5.62-43.75-11-66.08-16-10.85-2.42-21.89-4.79-33-7.09ZM0,16.5q28,6.65,55.14,14C76.36,36.21,97.5,42.33,118,48.66c21.2,6.56,42.31,13.56,62.75,20.79,21.1,7.46,42.08,15.38,62.35,23.55,20.85,8.4,41.57,17.31,61.57,26.47,20.54,9.42,40.88,19.36,60.45,29.55,20.1,10.48,39.94,21.5,59,32.79H187.63C171,171,153.53,160.35,135.71,150.26c-17.45-9.88-35.77-19.55-54.44-28.74-18.26-9-37.34-17.75-56.72-26Q12.46,90.31,0,85.28Z" transform="translate(0 -2.56)"/></svg>