<?xml version="1.0" encoding="UTF-8"?>
<svg width="21px" height="20px" viewBox="0 0 21 20" version="1.1" xmlns="http://www.w3.org/2000/svg" xmlns:xlink="http://www.w3.org/1999/xlink">
    <!-- Generator: Sketch 53.2 (72643) - https://sketchapp.com -->
    <title>GOOGLE translate icon</title>
    <desc>Created with Sketch.</desc>
    <g id="working-layouts" stroke="none" stroke-width="1" fill="none" fill-rule="evenodd">
        <g id="page-3-eCOA" transform="translate(-1017.000000, -455.000000)">
            <g id="PANEL-2" transform="translate(319.000000, 418.000000)">
                <g id="GOOGLE-translate-icon" transform="translate(698.000000, 36.000000)">
                    <g>
                        <polygon id="Path" points="0 0 22 0 22 22 0 22"></polygon>
                        <path d="M11.5958333,14.3641667 C11.7241667,14.0341667 11.6416667,13.6583333 11.385,13.4016667 L9.46916667,11.5133333 L9.49666667,11.4858333 C11.0916667,9.7075 12.2283333,7.66333333 12.8975,5.5 L14.6758333,5.5 C15.1708333,5.5 15.5833333,5.0875 15.5833333,4.5925 L15.5833333,4.57416667 C15.5833333,4.07916667 15.1708333,3.66666667 14.6758333,3.66666667 L9.16666667,3.66666667 L9.16666667,2.75 C9.16666667,2.24583333 8.75416667,1.83333333 8.25,1.83333333 C7.74583333,1.83333333 7.33333333,2.24583333 7.33333333,2.75 L7.33333333,3.66666667 L1.82416667,3.66666667 C1.32916667,3.66666667 0.916666667,4.07916667 0.916666667,4.57416667 C0.916666667,5.07833333 1.32916667,5.48166667 1.82416667,5.48166667 L11.1558333,5.48166667 C10.5416667,7.26 9.57,8.9375 8.25,10.4041667 C7.5075,9.58833333 6.88416667,8.69916667 6.36166667,7.76416667 C6.215,7.49833333 5.94916667,7.33333333 5.64666667,7.33333333 C5.01416667,7.33333333 4.61083333,8.02083333 4.9225,8.57083333 C5.5,9.60666667 6.20583333,10.5966667 7.03083333,11.5133333 L3.025,15.4641667 C2.65833333,15.8216667 2.65833333,16.4083333 3.025,16.7658333 C3.3825,17.1233333 3.96,17.1233333 4.32666667,16.7658333 L8.25,12.8333333 L10.1016667,14.685 C10.5691667,15.1525 11.3666667,14.9783333 11.5958333,14.3641667 Z M16.0416667,9.16666667 C15.4916667,9.16666667 14.9966667,9.50583333 14.8041667,10.0283333 L11.44,19.0116667 C11.22,19.5708333 11.6416667,20.1666667 12.2375,20.1666667 C12.595,20.1666667 12.9158333,19.9466667 13.0441667,19.6075 L13.86,17.4166667 L18.2141667,17.4166667 L19.0391667,19.6075 C19.1675,19.9375 19.4883333,20.1666667 19.8458333,20.1666667 C20.4416667,20.1666667 20.8633333,19.5708333 20.6525,19.0116667 L17.2883333,10.0283333 C17.0866667,9.50583333 16.5916667,9.16666667 16.0416667,9.16666667 L16.0416667,9.16666667 Z M14.5566667,15.5833333 L16.0416667,11.6141667 L17.5266667,15.5833333 L14.5566667,15.5833333 L14.5566667,15.5833333 Z" id="Shape" fill="#000000" fill-rule="nonzero"></path>
                    </g>
                </g>
            </g>
        </g>
    </g>
</svg>