<svg xmlns="http://www.w3.org/2000/svg" xmlns:xlink="http://www.w3.org/1999/xlink" viewBox="0 0 106.07 60.32"><defs><style>.cls-1{isolation:isolate;}.cls-2{opacity:0.1;}.cls-3{mix-blend-mode:multiply;fill:url(#linear-gradient);}</style><linearGradient id="linear-gradient" x1="37.78" x2="37.78" y2="60.32" gradientUnits="userSpaceOnUse"><stop offset="0" stop-color="#00adee" stop-opacity="0.5"/><stop offset="0.34" stop-color="#1266b1" stop-opacity="0.75"/><stop offset="0.67" stop-color="#1e3386" stop-opacity="0.94"/><stop offset="0.9" stop-color="#232176"/></linearGradient></defs><title>dataswoop-color</title><g class="cls-1"><g id="Layer_1" data-name="Layer 1"><g class="cls-2"><path class="cls-3" d="M39.83,17.94a64.83,64.83,0,0,0-8.75-6.52H45.21a71.65,71.65,0,0,1,8.92,5.84c.37.29.13.82-.36.82H40.2A.53.53,0,0,1,39.83,17.94ZM27.94,11.1c-9.46-5.61-20.12-9-30.11-11L-7.82,0h0c-2.45,0-4.93.05-7.42.15,10.49,2.1,20.54,5.58,28.78,11ZM49.2,28.25a2,2,0,0,0,1.66.8H62c1.62,0,2.54-1.57,1.61-2.71A56.56,56.56,0,0,0,57,19.59a2.19,2.19,0,0,0-1.43-.51H43c-.72,0-1.09.72-.61,1.19A62.92,62.92,0,0,1,49.2,28.25ZM44.64,11.1C34.86,5.76,23.92,2.41,13.59.36L0,.12c10.9,2.06,21.55,5.51,30.56,11Zm20.81.32A77.71,77.71,0,0,1,75.77,18a.58.58,0,0,0,.34.11h12.4c.51,0,.74-.57.33-.83a85.81,85.81,0,0,0-10.38-5.83Zm-17.25,0A70.29,70.29,0,0,1,57.7,18a.56.56,0,0,0,.36.12h13.1c.5,0,.74-.55.35-.83a78.63,78.63,0,0,0-9.64-5.83Zm16.67-.32H77.82c-.37-.18-.76-.34-1.14-.51C64.79,5.78,41.54.65,29.55.65c10.13.79,26,5.65,34.4,10C64.27,10.76,64.56,10.94,64.87,11.1ZM47.45,11l.23.14H61.27A124.77,124.77,0,0,0,29.55.65L17,.42C27.66,2.47,38.19,5.77,47.45,11ZM72,46H60.53A1.78,1.78,0,0,0,58.6,48,50.07,50.07,0,0,1,60.28,58.7a1.87,1.87,0,0,0,2,1.62h11.2a1.86,1.86,0,0,0,2-1.76,59.8,59.8,0,0,0-1.51-11.25A1.94,1.94,0,0,0,72,46ZM48.82,31.54A2,2,0,0,0,47,30.6H33.7a.77.77,0,0,0-.77,1.1,65.72,65.72,0,0,1,4.56,9.8,2,2,0,0,0,1.88,1.2H51a1.77,1.77,0,0,0,1.9-2.18A53,53,0,0,0,48.82,31.54Zm41.87,8.84a48.33,48.33,0,0,0-4.9-9,2.07,2.07,0,0,0-1.71-.83H71a.76.76,0,0,0-.75,1.14,56.22,56.22,0,0,1,5.23,9.82,2,2,0,0,0,1.85,1.14H88.84A1.76,1.76,0,0,0,90.69,40.38Zm-45.32-14a53.23,53.23,0,0,0-6-6.76,2.17,2.17,0,0,0-1.49-.56H25.05c-.71,0-1.08.7-.63,1.17a59.57,59.57,0,0,1,6.31,8,2,2,0,0,0,1.7.85H43.71C45.29,29.05,46.23,27.54,45.37,26.4Zm24.06,2.65H80.16c1.64,0,2.58-1.63,1.58-2.75a59,59,0,0,0-7.18-6.77,2.23,2.23,0,0,0-1.37-.45H61c-.73,0-1.09.75-.59,1.21a61.82,61.82,0,0,1,7.38,8A2,2,0,0,0,69.43,29.05ZM36.69,17.28a64.32,64.32,0,0,0-8.22-5.86H14l.42.26a60,60,0,0,1,7.71,6.25.54.54,0,0,0,.39.15H36.31C36.79,18.08,37,17.57,36.69,17.28Z" transform="translate(15.26)"/></g></g></g></svg>