<?xml version="1.0" encoding="UTF-8"?>
<svg width="107px" height="41px" viewBox="0 0 107 41" version="1.1" xmlns="http://www.w3.org/2000/svg" xmlns:xlink="http://www.w3.org/1999/xlink">
    <!-- Generator: Sketch 53.2 (72643) - https://sketchapp.com -->
    <title>CANCEL BUTTON</title>
    <desc>Created with Sketch.</desc>
    <g id="working-layouts" stroke="none" stroke-width="1" fill="none" fill-rule="evenodd">
        <g id="page-2-destination-selection" transform="translate(-752.000000, -263.000000)">
            <g id="CANCEL-BUTTON" transform="translate(752.000000, 263.000000)">
                <g>
                    <rect id="Rectangle" fill="#00ADEE" x="0" y="0" width="107" height="41" rx="3"></rect>
                    <path d="M32.416,25.168 C29.77,25.168 27.656,23.208 27.656,20.338 C27.656,17.468 29.77,15.508 32.416,15.508 C34.11,15.508 35.258,16.306 36,17.356 L35.02,17.902 C34.488,17.118 33.522,16.544 32.416,16.544 C30.414,16.544 28.86,18.112 28.86,20.338 C28.86,22.55 30.414,24.132 32.416,24.132 C33.522,24.132 34.488,23.572 35.02,22.774 L36.014,23.32 C35.23,24.384 34.11,25.168 32.416,25.168 Z M44.162,25 L43.336,22.928 L38.604,22.928 L37.778,25 L36.49,25 L40.242,15.662 L41.684,15.662 L45.45,25 L44.162,25 Z M40.97,16.698 L38.94,21.892 L42.986,21.892 L40.97,16.698 Z M53.276,25 L47.83,17.468 L47.83,25 L46.668,25 L46.668,15.662 L47.858,15.662 L53.234,23.04 L53.234,15.662 L54.396,15.662 L54.396,25 L53.276,25 Z M60.962,25.168 C58.316,25.168 56.202,23.208 56.202,20.338 C56.202,17.468 58.316,15.508 60.962,15.508 C62.656,15.508 63.804,16.306 64.546,17.356 L63.566,17.902 C63.034,17.118 62.068,16.544 60.962,16.544 C58.96,16.544 57.406,18.112 57.406,20.338 C57.406,22.55 58.96,24.132 60.962,24.132 C62.068,24.132 63.034,23.572 63.566,22.774 L64.56,23.32 C63.776,24.384 62.656,25.168 60.962,25.168 Z M66.044,25 L66.044,15.662 L72.162,15.662 L72.162,16.698 L67.206,16.698 L67.206,19.708 L72.064,19.708 L72.064,20.744 L67.206,20.744 L67.206,23.964 L72.162,23.964 L72.162,25 L66.044,25 Z M74.01,25 L74.01,15.662 L75.172,15.662 L75.172,23.964 L79.512,23.964 L79.512,25 L74.01,25 Z" id="CANCEL" fill="#FFFFFF" fill-rule="nonzero"></path>
                </g>
            </g>
        </g>
    </g>
</svg>