<svg xmlns="http://www.w3.org/2000/svg" xmlns:xlink="http://www.w3.org/1999/xlink" width="28" height="28" viewBox="0 0 28 28">
  <defs>
    <clipPath id="clip-path">
      <rect width="28" height="28" fill="none"/>
    </clipPath>
  </defs>
  <g id="file_images_upload" data-name="file images upload" clip-path="url(#clip-path)">
    <path id="Path_27" data-name="Path 27" d="M0,0H28V28H0Z" fill="none"/>
    <path id="Path_28" data-name="Path 28" d="M16.483,20.686a2.333,2.333,0,1,1-3.3,0,2.333,2.333,0,0,1,3.3,0" transform="translate(-6.667 -10.668)" fill="#303f56"/>
    <path id="Path_29" data-name="Path 29" d="M15.833,32.169,13.5,29.836,10,34.5h9.333V29.836L18.167,27.5Z" transform="translate(-5.333 -14.668)" fill="#303f56"/>
    <path id="Path_30" data-name="Path 30" d="M17.455,6.545v6.548h2.182V5l-5-5H2.182A2.185,2.185,0,0,0,0,2.182V21.818A2.184,2.184,0,0,0,2.182,24H13.091V21.818H2.182V2.182H13.091V6.545Z" fill="#303f56"/>
    <path id="Path_31" data-name="Path 31" d="M41.224,36.462l-5.492,5.492,1.65,1.65,2.675-2.675v6.518h2.333V40.929L45.066,43.6l1.65-1.65Z" transform="translate(-19.057 -19.447)" fill="#303f56"/>
  </g>
</svg>
