<?xml version="1.0" encoding="UTF-8"?>
<svg width="147px" height="41px" viewBox="0 0 147 41" version="1.1" xmlns="http://www.w3.org/2000/svg" xmlns:xlink="http://www.w3.org/1999/xlink">
    <!-- Generator: Sketch 53.2 (72643) - https://sketchapp.com -->
    <title>SAVE CHANGES BUTTON</title>
    <desc>Created with Sketch.</desc>
    <g id="working-layouts" stroke="none" stroke-width="1" fill="none" fill-rule="evenodd">
        <g id="page-3-IRT" transform="translate(-893.000000, -1344.000000)">
            <g id="SAVE-CHANGES-BUTTON" transform="translate(893.000000, 1344.000000)">
                <g>
                    <rect id="Rectangle" fill="#232176" x="0" y="0" width="147" height="41" rx="3"></rect>
                    <path d="M24.023,24.684 L24.709,23.802 C25.325,24.488 26.333,25.132 27.649,25.132 C29.315,25.132 29.847,24.236 29.847,23.522 C29.847,22.402 28.713,22.094 27.481,21.758 C25.983,21.366 24.317,20.946 24.317,19.112 C24.317,17.572 25.689,16.522 27.523,16.522 C28.951,16.522 30.057,16.998 30.841,17.824 L30.141,18.678 C29.441,17.908 28.461,17.558 27.439,17.558 C26.319,17.558 25.521,18.16 25.521,19.042 C25.521,19.98 26.599,20.26 27.789,20.582 C29.315,20.988 31.051,21.464 31.051,23.424 C31.051,24.782 30.127,26.168 27.607,26.168 C25.983,26.168 24.793,25.552 24.023,24.684 Z M39.353,26 L38.527,23.928 L33.795,23.928 L32.969,26 L31.681,26 L35.433,16.662 L36.875,16.662 L40.641,26 L39.353,26 Z M36.161,17.698 L34.131,22.892 L38.177,22.892 L36.161,17.698 Z M43.889,26 L40.137,16.662 L41.467,16.662 L44.617,24.726 L47.767,16.662 L49.097,16.662 L45.331,26 L43.889,26 Z M50.315,26 L50.315,16.662 L56.433,16.662 L56.433,17.698 L51.477,17.698 L51.477,20.708 L56.335,20.708 L56.335,21.744 L51.477,21.744 L51.477,24.964 L56.433,24.964 L56.433,26 L50.315,26 Z M66.275,26.168 C63.629,26.168 61.515,24.208 61.515,21.338 C61.515,18.468 63.629,16.508 66.275,16.508 C67.969,16.508 69.117,17.306 69.859,18.356 L68.879,18.902 C68.347,18.118 67.381,17.544 66.275,17.544 C64.273,17.544 62.719,19.112 62.719,21.338 C62.719,23.55 64.273,25.132 66.275,25.132 C67.381,25.132 68.347,24.572 68.879,23.774 L69.873,24.32 C69.089,25.384 67.969,26.168 66.275,26.168 Z M77.979,26 L77.979,21.716 L72.519,21.716 L72.519,26 L71.357,26 L71.357,16.662 L72.519,16.662 L72.519,20.68 L77.979,20.68 L77.979,16.662 L79.141,16.662 L79.141,26 L77.979,26 Z M88.031,26 L87.205,23.928 L82.473,23.928 L81.647,26 L80.359,26 L84.111,16.662 L85.553,16.662 L89.319,26 L88.031,26 Z M84.839,17.698 L82.809,22.892 L86.855,22.892 L84.839,17.698 Z M97.145,26 L91.699,18.468 L91.699,26 L90.537,26 L90.537,16.662 L91.727,16.662 L97.103,24.04 L97.103,16.662 L98.265,16.662 L98.265,26 L97.145,26 Z M100.071,21.338 C100.071,18.44 102.213,16.508 104.873,16.508 C106.525,16.508 107.673,17.236 108.499,18.258 L107.575,18.832 C106.987,18.076 105.993,17.544 104.873,17.544 C102.829,17.544 101.275,19.112 101.275,21.338 C101.275,23.55 102.829,25.146 104.873,25.146 C105.993,25.146 106.917,24.6 107.379,24.138 L107.379,22.234 L104.173,22.234 L104.173,21.198 L108.541,21.198 L108.541,24.572 C107.673,25.538 106.399,26.182 104.873,26.182 C102.213,26.182 100.071,24.236 100.071,21.338 Z M110.431,26 L110.431,16.662 L116.549,16.662 L116.549,17.698 L111.593,17.698 L111.593,20.708 L116.451,20.708 L116.451,21.744 L111.593,21.744 L111.593,24.964 L116.549,24.964 L116.549,26 L110.431,26 Z M117.837,24.684 L118.523,23.802 C119.139,24.488 120.147,25.132 121.463,25.132 C123.129,25.132 123.661,24.236 123.661,23.522 C123.661,22.402 122.527,22.094 121.295,21.758 C119.797,21.366 118.131,20.946 118.131,19.112 C118.131,17.572 119.503,16.522 121.337,16.522 C122.765,16.522 123.871,16.998 124.655,17.824 L123.955,18.678 C123.255,17.908 122.275,17.558 121.253,17.558 C120.133,17.558 119.335,18.16 119.335,19.042 C119.335,19.98 120.413,20.26 121.603,20.582 C123.129,20.988 124.865,21.464 124.865,23.424 C124.865,24.782 123.941,26.168 121.421,26.168 C119.797,26.168 118.607,25.552 117.837,24.684 Z" id="SAVECHANGES" fill="#FFFFFF" fill-rule="nonzero"></path>
                </g>
            </g>
        </g>
    </g>
</svg>